<svg xmlns="http://www.w3.org/2000/svg" version="1.1" xmlns:xlink="http://www.w3.org/1999/xlink" xmlns:svgjs="http://svgjs.dev/svgjs" width="100%" height="100%" viewBox="0 0 1000 600"><rect width="1000" height="600" x="0" y="0" fill="#ffffff"/><g><rect width="333.3333333333333" height="333.3333333333333" rx="13.333333333333334" ry="13.333333333333334" y="232.2172661811784" fill="#f6f8fa" transform="matrix(0.5952520510715409,0,0,0.5952520510715408,0,62.56349425070319)" x="209.99502563476562"/><path d="M243.92922424306192 387.78249411521676Q243.92922424306192 369.53286761788644 252.1589604428117 354.93813907029397Q260.38869664256146 340.3434105227015 274.6104764197725 332.11367432295174Q288.85711944834236 323.88393812320203 306.21166889675726 323.88393812320203L306.21166889675726 323.88393812320203Q326.6243982622997 323.88393812320203 341.84070809386117 333.7297856612712Q357.05701792542266 343.5756331993404 364.04359155723444 361.65121693715935L364.04359155723444 361.65121693715935L344.52593924060733 361.65121693715935Q339.32951970662634 350.363300820282 329.5831251739922 344.29666748874445Q319.8118673899993 338.20517090584815 306.21166889675726 338.20517090584815L306.21166889675726 338.20517090584815Q293.1584619334079 338.20517090584815 282.765622865446 344.29666748874445Q272.37278379748403 350.363300820282 266.4801932254578 361.55176393172434Q260.5627394020728 372.7402270431666 260.5627394020728 387.78249411521676L260.5627394020728 387.78249411521676Q260.5627394020728 402.6507184277556 266.4801932254578 413.83918153919785Q272.37278379748403 425.0276446506401 282.765622865446 431.1191412335365Q293.1584619334079 437.18577456507404 306.21166889675726 437.18577456507404L306.21166889675726 437.18577456507404Q319.8118673899993 437.18577456507404 329.5831251739922 431.19373098761275Q339.32951970662634 425.20168741015146 344.52593924060733 413.9137712932741L344.52593924060733 413.9137712932741L364.04359155723444 413.9137712932741Q357.05701792542266 431.8153122715818 341.84070809386117 441.58657005557467Q326.6243982622997 451.3329645882089 306.21166889675726 451.3329645882089L306.21166889675726 451.3329645882089Q288.85711944834236 451.3329645882089 274.6104764197725 443.2026813938941Q260.38869664256146 435.04753494822063 252.1589604428117 420.55225940606323Q243.92922424306192 406.05698386390577 243.92922424306192 387.78249411521676L243.92922424306192 387.78249411521676ZM509.39415900054894 473.8839335706047L488.28525859696106 473.8839335706047L463.3971439868418 449.0206822118441Q454.2723307381766 451.50700734772016 444.77456871913006 451.50700734772016L444.77456871913006 451.50700734772016Q427.42001927071516 451.50700734772016 413.0987864880691 443.3767241534054Q398.777553705423 435.22157770773197 390.4483645002382 420.6268491601395Q382.1191752950533 406.05698386390577 382.1191752950533 387.78249411521676L382.1191752950533 387.78249411521676Q382.1191752950533 369.53286761788644 390.4483645002382 354.93813907029397Q398.777553705423 340.3434105227015 413.0987864880691 332.2131273283868Q427.42001927071516 324.0579808827133 444.77456871913006 324.0579808827133L444.77456871913006 324.0579808827133Q462.32802417841503 324.0579808827133 476.64925696106116 332.2131273283868Q490.9704897437073 340.3434105227015 499.200225943457 354.83868606485896Q507.4299621432068 369.35882485837516 507.4299621432068 387.78249411521676L507.4299621432068 387.78249411521676Q507.4299621432068 405.6840350935244 499.54831146247966 420.0052678761705Q491.6666607817525 434.3265006588166 477.8924195289992 442.55623685856636L477.8924195289992 442.55623685856636L509.39415900054894 473.8839335706047ZM398.777553705423 387.78249411521676Q398.777553705423 402.6507184277556 404.76959728288426 413.9137712932741Q410.76164086034555 425.20168741015146 421.22906968238374 431.2931839930478Q431.696498504422 437.3846805759442 444.77456871913006 437.3846805759442L444.77456871913006 437.3846805759442Q457.85263893383814 437.3846805759442 468.3200677558764 431.2931839930478Q478.78749657791457 425.20168741015146 484.7795401553759 413.9137712932741Q490.77158373283714 402.6507184277556 490.77158373283714 387.78249411521676L490.77158373283714 387.78249411521676Q490.77158373283714 372.7402270431666 484.7795401553759 361.55176393172434Q478.78749657791457 350.363300820282 468.3946575099526 344.29666748874445Q458.0266816933494 338.20517090584815 444.77456871913006 338.20517090584815L444.77456871913006 338.20517090584815Q431.52245574491064 338.20517090584815 421.15447992830747 344.29666748874445Q410.76164086034555 350.363300820282 404.76959728288426 361.55176393172434Q398.777553705423 372.7402270431666 398.777553705423 387.78249411521676L398.777553705423 387.78249411521676Z " fill="#3f8efc" transform="matrix(0.5952520510715409,0,0,0.5952520510715408,0,62.56349425070319)"/><path d="M626.6616918798238 393.0859802882739Q626.6616918798238 375.96045556714915 634.3845102486143 362.26470214575914Q642.1073286174051 348.5689487243691 655.4531053755568 340.8461303555785Q668.8222139112577 333.1233119867879 685.1077946406108 333.1233119867879L685.1077946406108 333.1233119867879Q704.2631840085173 333.1233119867879 718.5422318686378 342.36269589627756Q732.8212797287583 351.6020798057673 739.3775092200881 368.56428208404753L739.3775092200881 368.56428208404753L721.0620638439532 368.56428208404753Q716.1857223361669 357.9716550767033 707.0396655368742 352.27870135469453Q697.8702769600321 346.5624158551365 685.1077946406108 346.5624158551365L685.1077946406108 346.5624158551365Q672.8586114272722 346.5624158551365 663.1059284116998 352.27870135469453Q653.3532453961272 357.9716550767033 647.823614116963 368.47095497385067Q642.2706510602495 378.970254870998 642.2706510602495 393.0859802882739L642.2706510602495 393.0859802882739Q642.2706510602495 407.0383832627053 647.823614116963 417.5376831598527Q653.3532453961272 428.03698305700004 663.1059284116998 433.75326855655806Q672.8586114272722 439.44622227856684 685.1077946406108 439.44622227856684L685.1077946406108 439.44622227856684Q697.8702769600321 439.44622227856684 707.0396655368742 433.8232638892057Q716.1857223361669 428.20030549984455 721.0620638439532 417.6076784925003L721.0620638439532 417.6076784925003L739.3775092200881 417.6076784925003Q732.8212797287583 434.4065583279361 718.5422318686378 443.57594690477816Q704.2631840085173 452.7220037040709 685.1077946406108 452.7220037040709L685.1077946406108 452.7220037040709Q668.8222139112577 452.7220037040709 655.4531053755568 445.0925124454772Q642.1073286174051 437.4396894093342 634.3845102486143 423.8372630981411Q626.6616918798238 410.23483678694794 626.6616918798238 393.0859802882739L626.6616918798238 393.0859802882739ZM802.2099861601278 453.2353028101537Q789.2608496203127 453.2353028101537 778.7615497231652 447.3556948677512Q768.262249826018 441.4760869253486 762.3126465509677 430.62681036496303Q756.3397114983684 419.8008655821267 756.3397114983684 405.52181772200623L756.3397114983684 405.52181772200623Q756.3397114983684 391.40609230473035 762.4759689938123 380.580147521894Q768.612226489256 369.73087096150834 779.181521719051 363.9445901293027Q789.7741487263954 358.15830929709705 802.8632759315058 358.15830929709705L802.8632759315058 358.15830929709705Q815.9757349141653 358.15830929709705 826.5683619215094 363.9445901293027Q837.1376571513047 369.73087096150834 843.2739146467484 380.4868204116971Q849.4101721421923 391.24276986188585 849.4101721421923 405.52181772200623L849.4101721421923 405.52181772200623Q849.4101721421923 419.8008655821267 843.1105922039039 430.62681036496303Q836.8110122656155 441.4760869253486 826.0550628154267 447.3556948677512Q815.2991133652381 453.2353028101537 802.2099861601278 453.2353028101537L802.2099861601278 453.2353028101537ZM802.2099861601278 439.7961989418051Q810.4227718574518 439.7961989418051 817.655622897709 435.9231238686352Q824.888473937966 432.07338057301445 829.321511672317 424.32723042667465Q833.7778811842174 416.604412057884 833.7778811842174 405.52181772200623L833.7778811842174 405.52181772200623Q833.7778811842174 394.4392233861285 829.4148387825139 386.7164050173379Q825.0517963808104 378.970254870998 817.9822677833979 375.190506908025Q810.9360709635346 371.4107589450519 802.6999534886613 371.4107589450519L802.6999534886613 371.4107589450519Q794.3005135709434 371.4107589450519 787.3243120837276 375.190506908025Q780.3714423740612 378.970254870998 776.1717224152023 386.7164050173379Q771.9720024563433 394.4392233861285 771.9720024563433 405.52181772200623L771.9720024563433 405.52181772200623Q771.9720024563433 416.7677345007285 776.0783953050054 424.5138846470684Q780.1847881536676 432.23670301585895 787.0909943082354 436.016450978832Q793.9738686852543 439.7961989418051 802.2099861601278 439.7961989418051L802.2099861601278 439.7961989418051ZM863.8525424451573 405.35849527916173Q863.8525424451573 391.24276986188585 869.5688279447154 380.580147521894Q875.2851134442733 369.9175251819021 885.271114235338 364.03791723949956Q895.2571150264025 358.15830929709705 907.6929524601348 358.15830929709705L907.6929524601348 358.15830929709705Q918.4489019103237 358.15830929709705 927.6882858198132 363.1046461375309Q936.927669729303 368.0509829779648 941.8040112370891 376.12377800999366L941.8040112370891 376.12377800999366L941.8040112370891 327.40702648722987L957.2496479746703 327.40702648722987L957.2496479746703 451.7187372694546L941.8040112370891 451.7187372694546L941.8040112370891 434.4065583279361Q937.2543146149919 442.6426758028095 928.3649073687407 447.9389893064816Q919.45216834494 453.2353028101537 907.5296300172904 453.2353028101537L907.5296300172904 453.2353028101537Q895.2571150264025 453.2353028101537 885.271114235338 447.19237242490664Q875.2851134442733 441.12611026211044 869.5688279447154 430.20683836907716Q863.8525424451573 419.2875664760439 863.8525424451573 405.35849527916173L863.8525424451573 405.35849527916173ZM941.8040112370891 405.52181772200623Q941.8040112370891 395.11584493505575 937.6042912782302 387.36969478871595Q933.4045713193711 379.6468764199253 926.2650473893111 375.5404835712632Q919.1255234592509 371.4107589450519 910.5627610986885 371.4107589450519L910.5627610986885 371.4107589450519Q901.9766669605767 371.4107589450519 894.9304701407134 375.44715646106636Q887.8842733208501 379.4835539770808 883.6845533619912 387.2063723458714Q879.4848334031321 394.929190714662 879.4848334031321 405.35849527916173L879.4848334031321 405.35849527916173Q879.4848334031321 415.9277905089567 883.6845533619912 423.7439359879442Q887.8842733208501 431.5600814669317 894.9304701407134 435.6664743155938Q901.9766669605767 439.7961989418051 910.5627610986885 439.7961989418051L910.5627610986885 439.7961989418051Q919.1255234592509 439.7961989418051 926.2650473893111 435.6664743155938Q933.4045713193711 431.5600814669317 937.6042912782302 423.7439359879442Q941.8040112370891 415.9277905089567 941.8040112370891 405.52181772200623L941.8040112370891 405.52181772200623ZM1067.1189884539301 402.16204175491913Q1067.1189884539301 406.52508415662254 1066.6056893478474 411.4014256644088L1066.6056893478474 411.4014256644088L993.0405947351683 411.4014256644088Q993.8805387269401 425.0038519756019 1002.3499739773056 432.6566750117449Q1010.8427410052204 440.28616627033864 1022.9286017757145 440.28616627033864L1022.9286017757145 440.28616627033864Q1032.8446072341314 440.28616627033864 1039.4941638356581 435.6664743155938Q1046.1203886596354 431.04678236084897 1048.8035430777954 423.32396399205834L1048.8035430777954 423.32396399205834L1065.2757780275422 423.32396399205834Q1061.5660253972167 436.5997454175624 1050.483431061339 444.9058582250835Q1039.4008367254612 453.2353028101537 1022.9286017757145 453.2353028101537L1022.9286017757145 453.2353028101537Q1009.8394745706041 453.2353028101537 999.5034971163011 447.3556948677512Q989.1675196619983 441.4760869253486 983.2879117195957 430.62681036496303Q977.4083037771934 419.8008655821267 977.4083037771934 405.52181772200623L977.4083037771934 405.52181772200623Q977.4083037771934 391.24276986188585 983.1245892767513 380.4868204116971Q988.8408747763094 369.73087096150834 999.1768522306122 363.9445901293027Q1009.4894979073658 358.15830929709705 1022.9286017757145 358.15830929709705L1022.9286017757145 358.15830929709705Q1036.041060758374 358.15830929709705 1046.1203886596354 363.85126301910583Q1056.1997165608968 369.56754851866384 1061.6593525074136 379.5768810872776Q1067.1189884539301 389.56288187834224 1067.1189884539301 402.16204175491913L1067.1189884539301 402.16204175491913ZM1051.3233750531108 398.9655882306765Q1051.3233750531108 390.23950342726954 1047.47363175749 383.9399234889811Q1043.60055668432 377.6403435506927 1036.9743318603428 374.3505629162532Q1030.324775258816 371.0841140593629 1022.2753120043365 371.0841140593629L1022.2753120043365 371.0841140593629Q1010.6794185623758 371.0841140593629 1002.5366281976994 378.4802875424645Q994.3705060554737 385.8764610255661 993.2039171780127 398.9655882306765L993.2039171780127 398.9655882306765L1051.3233750531108 398.9655882306765ZM1245.8637362584766 473.8839259412102L1226.0317253416429 473.8839259412102L1202.6766160148773 450.55214839199385Q1194.1138536543149 452.8853261469155 1185.2244464080634 452.8853261469155L1185.2244464080634 452.8853261469155Q1168.915533901161 452.8853261469155 1155.4764300328127 445.2558348883217Q1142.0373261644638 437.6030118521787 1134.2211806854764 423.9072584307888Q1126.4283669840381 410.23483678694794 1126.4283669840381 393.0859802882739L1126.4283669840381 393.0859802882739Q1126.4283669840381 375.96045556714915 1134.2211806854764 362.26470214575914Q1142.0373261644638 348.5689487243691 1155.4764300328127 340.9394574657754Q1168.915533901161 333.2866344296324 1185.2244464080634 333.2866344296324L1185.2244464080634 333.2866344296324Q1201.673349580261 333.2866344296324 1215.1124534486096 340.9394574657754Q1228.5515573169582 348.5689487243691 1236.2743756857487 362.1713750355622Q1244.0205258320887 375.7971331243046 1244.0205258320887 393.0859802882739L1244.0205258320887 393.0859802882739Q1244.0205258320887 409.8848601237097 1236.624352348987 423.32396399205834Q1229.2281788658854 436.763067860407 1216.3023741036195 444.48588622919755L1216.3023741036195 444.48588622919755L1245.8637362584766 473.8839259412102ZM1142.0373261644638 393.0859802882739Q1142.0373261644638 407.0383832627053 1147.660284553825 417.6076784925003Q1153.3065747207354 428.20030549984455 1163.1292530689554 433.91659099940256Q1172.9519314171757 439.63287649896057 1185.2244464080634 439.63287649896057L1185.2244464080634 439.63287649896057Q1197.473629621402 439.63287649896057 1207.2963079696221 433.91659099940256Q1217.1423180953914 428.20030549984455 1222.7652764847526 417.6076784925003Q1228.3882348741136 407.0383832627053 1228.3882348741136 393.0859802882739L1228.3882348741136 393.0859802882739Q1228.3882348741136 378.970254870998 1222.7652764847526 368.47095497385067Q1217.1423180953914 357.9716550767033 1207.3896350798188 352.27870135469453Q1197.6369520642465 346.5624158551365 1185.2244464080634 346.5624158551365L1185.2244464080634 346.5624158551365Q1172.788608974331 346.5624158551365 1163.0359259587588 352.27870135469453Q1153.3065747207354 357.9716550767033 1147.660284553825 368.47095497385067Q1142.0373261644638 378.970254870998 1142.0373261644638 393.0859802882739L1142.0373261644638 393.0859802882739ZM1330.8614018702722 359.65154306024687L1346.1437161650088 359.65154306024687L1346.1437161650088 451.7187372694546L1330.8614018702722 451.7187372694546L1330.8614018702722 438.1163109582615Q1326.4983594685684 445.16250777812485 1318.682213989581 449.10557818394244Q1310.8660685105935 453.0719803673092 1301.4633621582593 453.0719803673092L1301.4633621582593 453.0719803673092Q1290.7074127080707 453.0719803673092 1282.1446503475083 448.6156108554089Q1273.581887986946 444.15924134350854 1268.6122193689628 435.2465023197079Q1263.6658825285288 426.3570950734565 1263.6658825285288 413.5946127540351L1263.6658825285288 413.5946127540351L1263.6658825285288 359.65154306024687L1278.7848743804211 359.65154306024687L1278.7848743804211 411.56474810725325Q1278.7848743804211 425.16717441844645 1285.66774875744 432.4933525689004Q1292.5506231344586 439.7961989418051 1304.4964932396576 439.7961989418051L1304.4964932396576 439.7961989418051Q1316.745676452996 439.7961989418051 1323.8152050504084 432.23670301585895Q1330.8614018702722 424.6772070899129 1330.8614018702722 410.23483678694794L1330.8614018702722 410.23483678694794L1330.8614018702722 359.65154306024687ZM1379.904798278725 344.7192054287484Q1375.5417558770212 344.7192054287484 1372.5319565731722 341.6860743473503Q1369.4988254917741 338.65294326595216 1369.4988254917741 334.2899008642487L1369.4988254917741 334.2899008642487Q1369.4988254917741 329.9268584625452 1372.5319565731722 326.89372738114713Q1375.5417558770212 323.8839280772982 1379.904798278725 323.8839280772982L1379.904798278725 323.8839280772982Q1384.1045182375838 323.8839280772982 1387.044322208785 326.89372738114713Q1389.984126179986 329.9268584625452 1389.984126179986 334.2899008642487L1389.984126179986 334.2899008642487Q1389.984126179986 338.65294326595216 1387.044322208785 341.6860743473503Q1384.1045182375838 344.7192054287484 1379.904798278725 344.7192054287484L1379.904798278725 344.7192054287484ZM1372.0186574670895 359.65154306024687L1387.3009717618263 359.65154306024687L1387.3009717618263 451.7187372694546L1372.0186574670895 451.7187372694546L1372.0186574670895 359.65154306024687ZM1469.6154829554616 372.0873804939792L1424.7718065058677 439.11957739287783L1469.9654596187 439.11957739287783L1469.9654596187 451.7187372694546L1407.2963051215047 451.7187372694546L1407.2963051215047 439.11957739287783L1451.976659128254 372.0873804939792L1407.6229500071938 372.0873804939792L1407.6229500071938 359.65154306024687L1469.6154829554616 359.65154306024687L1469.6154829554616 372.0873804939792Z " fill="#3f8efc" transform="matrix(0.5952520510715409,0,0,0.5952520510715408,0,62.56349425070319)"/></g></svg>